FFmpeg version SVN-r25716, Copyright (c) 2000-2010 the FFmpeg developers  built on Nov 10 2010 12:23:18 with gcc 4.1.2 20080704 (Red Hat 4.1.2-48)  configuration: --enable-libmp3lame --enable-shared --disable-mmx --arch=x86_64  libavutil     50.33. 0 / 50.33. 0  libavcore      0.12. 1 /  0.12. 1  libavcodec    52.94. 4 / 52.94. 4  libavformat   52.84. 0 / 52.84. 0  libavdevice   52. 2. 2 / 52. 2. 2  libavfilter    1.59. 0 /  1.59. 0  libswscale     0.12. 0 /  0.12. 0Seems stream 0 codec frame rate differs from container frame rate: 600.00 (600/1) -> 7.50 (15/2)Input #0, mov,mp4,m4a,3gp,3g2,mj2, from '/RAID10/data/converted_video_files/12821.mov':  Duration: 00:00:27.86, start: 0.000000, bitrate: 2828 kb/s    Stream #0.0(eng): Video: rpza, rgb555le, 616x360, 2827 kb/s, 7.54 fps, 7.50 tbr, 600 tbn, 600 tbc[buffer @ 0x1341daa0] w:616 h:360 pixfmt:rgb555le[ffsink @ 0x1341dd10] auto-inserting filter 'auto-inserted scaler 0' between the filter 'src' and the filter 'out'[scale @ 0x1341e030] w:616 h:360 fmt:rgb555le -> w:616 h:360 fmt:yuv420p flags:0x4Output #0, flv, to '/RAID10/data/converted_video_files/12821.flv':  Metadata:    encoder         : Lavf52.84.0    Stream #0.0(eng): Video: flv, yuv420p, 616x360, q=2-31, 600 kb/s, 1k tbn, 24 tbcStream mapping:  Stream #0.0 -> #0.0Press [q] to stop encodingframe=   42 fps=  0 q=30.4 size=     463kB time=5.46 bitrate= 694.8kbits/s    frame=   84 fps= 81 q=23.6 size=     657kB time=11.04 bitrate= 487.4kbits/s    frame=  129 fps= 84 q=18.6 size=     925kB time=17.04 bitrate= 444.6kbits/s    frame=  163 fps= 79 q=16.0 size=    1154kB time=21.58 bitrate= 438.0kbits/s    frame=  207 fps= 81 q=15.4 size=    1498kB time=27.46 bitrate= 446.8kbits/s    frame=  210 fps= 80 q=15.8 Lsize=    1519kB time=27.83 bitrate= 447.2kbits/s    video:1516kB audio:0kB global headers:0kB muxing overhead 0.229985%